# xmcd
#
# Track frame offsets: 
#        150
#        18137
#        38025
#        55525
#        77800
#        96800
#        114650
#        133725
#        151987
#        172750
#        188662
#        209312
#
# Disc length: 3029 seconds
#
# Revision: 4
# Processed by: cddbd v1.5.2PL0 Copyright (c) Steve Scherf et al.
# Submitted via: ExactAudioCopy v1.3
#
DISCID=8b0bd30c
DTITLE=杜德偉 - 拯救地球精選
DYEAR=1992
DGENRE=Pop
TTITLE0=不可吩咐（拯救地球﹒廣東版）
TTITLE1=給我吧！
TTITLE2=讓自已快樂
TTITLE3=真的想你
TTITLE4=深愛的你
TTITLE5=Because I Love You
TTITLE6=准我
TTITLE7=想著你的感覺
TTITLE8=鍾愛一生
TTITLE9=天生喜歡你
TTITLE10=信自己（葉倩文合唱）
TTITLE11=拯救地球
EXTD=YEAR: 1992 ID3G: 13
EXTT0=
EXTT1=
EXTT2=
EXTT3=
EXTT4=
EXTT5=
EXTT6=
EXTT7=
EXTT8=
EXTT9=
EXTT10=
EXTT11=
PLAYORDER=
